<?xml version="1.0" encoding="UTF-8" standalone="no"?>
<svg
   xmlns:dc="http://purl.org/dc/elements/1.1/"
   xmlns:cc="http://creativecommons.org/ns#"
   xmlns:rdf="http://www.w3.org/1999/02/22-rdf-syntax-ns#"
   xmlns:svg="http://www.w3.org/2000/svg"
   xmlns="http://www.w3.org/2000/svg"
   xmlns:xlink="http://www.w3.org/1999/xlink"
   version="1.1"
   width="741"
   height="162"
   id="svg4375">
  <defs
     id="defs4377">
    <linearGradient
       id="linearGradient3354-9">
      <stop
         id="stop3356-9"
         style="stop-color:#959595;stop-opacity:1"
         offset="0" />
      <stop
         id="stop3358-9"
         style="stop-color:#cccccc;stop-opacity:1"
         offset="1" />
    </linearGradient>
    <linearGradient
       x1="-403.07309"
       y1="-40.681377"
       x2="-560.61346"
       y2="-32.881535"
       id="linearGradient3003"
       xlink:href="#linearGradient3354-9"
       gradientUnits="userSpaceOnUse"
       gradientTransform="matrix(1.1060606,0,0,1.1060606,642.17936,188.69781)" />
  </defs>
  <metadata
     id="metadata4380">
    <rdf:RDF>
      <cc:Work
         rdf:about="">
        <dc:format>image/svg+xml</dc:format>
        <dc:type
           rdf:resource="http://purl.org/dc/dcmitype/StillImage" />
        <dc:title></dc:title>
      </cc:Work>
    </rdf:RDF>
  </metadata>
  <g
     id="text3109-8-2-3-2"
     style="font-size:118.26729584px;font-weight:bold;fill:#4d4d4d;font-family:Century Gothic">
    <path
       d="m 368.63996,48.141009 15.20681,0 0,31.715511 c 0,6.173657 0.38566,10.470984 1.15704,12.891992 0.77133,2.380699 2.00184,4.236821 3.69151,5.568372 1.72635,1.331581 3.83841,1.997366 6.33617,1.997346 2.4977,0 4.60975,-0.64559 6.33617,-1.936821 1.76306,-1.33155 3.06703,-3.268373 3.9119,-5.810475 0.62438,-1.896451 0.9366,-5.951675 0.93665,-12.165682 l 0,-32.260243 15.09662,0 0,27.902386 c 0,11.499925 -0.82652,19.368269 -2.47938,23.605056 -2.02028,5.164879 -4.99553,9.139399 -8.92574,11.923579 -3.9303,2.74384 -8.92577,4.11575 -14.98641,4.11575 -6.57496,0 -11.90101,-1.61402 -15.97818,-4.84206 -4.04046,-3.22803 -6.88715,-7.72711 -8.54005,-13.497249 -1.17541,-3.994681 -1.76311,-11.257767 -1.76311,-21.789282 l 0,-27.41818"
       id="path2910-3" />
    <path
       d="m 427.4874,48.141009 14.98642,0 0,6.718362 c 3.41599,-3.147279 6.50143,-5.326204 9.25631,-6.536785 2.79156,-1.250798 5.63825,-1.876231 8.54007,-1.876298 5.95044,0 11.00101,2.279869 15.15171,6.839413 3.48943,3.873706 5.23417,9.603475 5.23423,17.189323 l 0,43.518036 -14.87623,0 0,-28.870797 c 0,-7.868315 -0.33063,-13.093703 -0.99175,-15.676178 -0.62447,-2.582386 -1.74478,-4.539385 -3.36092,-5.871001 -1.57949,-1.371866 -3.54462,-2.057824 -5.89541,-2.057876 -3.04873,0 -5.67503,1.129865 -7.87887,3.389443 -2.16719,2.219326 -3.67317,5.306138 -4.51797,9.260445 -0.4408,2.057915 -0.66119,6.516643 -0.66117,13.376198 l 0,26.449766 -14.98642,0 0,-65.852051"
       id="path2912-9" />
    <path
       d="m 496.41763,21.025458 c 2.64465,0 4.90363,1.049205 6.77695,3.147341 1.91001,2.098315 2.86502,4.640395 2.86505,7.626249 0,2.945667 -0.93668,5.467572 -2.80996,7.565722 -1.87332,2.05795 -4.11393,3.086888 -6.72185,3.086815 -2.6814,0 -4.97711,-1.049041 -6.88714,-3.14734 -1.87331,-2.138501 -2.80996,-4.720931 -2.80995,-7.7473 0,-2.905153 0.93664,-5.386707 2.80995,-7.444672 1.8733,-2.057785 4.13228,-3.086722 6.77695,-3.086815 m -7.54831,27.115551 15.09662,0 0,65.852051 -15.09662,0 0,-65.852051"
       id="path2914-9" />
    <path
       d="m 573.83283,61.456682 -12.50705,7.565723 c -2.35087,-2.703438 -4.68331,-4.579735 -6.99734,-5.628898 -2.27739,-1.049062 -4.95878,-1.573619 -8.04418,-1.573671 -5.61994,0 -10.17463,1.856175 -13.66409,5.568372 -3.45277,3.671941 -5.17915,8.392947 -5.17913,14.163033 0,5.60875 1.67126,10.18853 5.01384,13.739353 3.34253,3.550862 7.73193,5.326286 13.16821,5.326266 6.72181,0 11.95603,-2.521888 15.70269,-7.56572 l 11.84588,8.89729 c -6.42806,9.15957 -15.50071,13.73935 -27.21798,13.73935 -10.54195,0 -18.80651,-3.42979 -24.79371,-10.28938 -5.9505,-6.859573 -8.92574,-14.889319 -8.92574,-24.089261 0,-6.375344 1.45089,-12.246339 4.35268,-17.613003 2.90177,-5.366564 6.94222,-9.583189 12.12136,-12.649889 5.21584,-3.066574 11.03776,-4.599892 17.46579,-4.599959 5.95045,0 11.29487,1.311457 16.03327,3.934175 4.7383,2.582495 8.61346,6.274564 11.6255,11.076219"
       id="path2916-7" />
    <path
       d="m 611.08221,46.446288 c 5.6566,0 10.96428,1.553561 15.92307,4.660485 4.99542,3.10705 8.88895,7.323675 11.6806,12.649889 2.79153,5.326313 4.18733,11.076257 4.1874,17.249847 0,6.214008 -1.41423,12.024477 -4.2425,17.431426 -2.79164,5.406985 -6.61172,9.643785 -11.46021,12.710415 -4.84859,3.02629 -10.19301,4.53943 -16.03326,4.53943 -8.59518,0 -15.94146,-3.34909 -22.03886,-10.04728 -6.06069,-6.738519 -9.09103,-14.909492 -9.09102,-24.512938 0,-10.289341 3.43438,-18.863818 10.30316,-25.723458 6.02393,-5.971813 12.9478,-8.957749 20.77162,-8.957816 m 0.22039,15.555125 c -4.66492,0 -8.55845,1.795649 -11.68059,5.386795 -3.08547,3.550889 -4.62818,8.110494 -4.62816,13.678828 0,5.7298 1.52433,10.370106 4.57306,13.92093 3.08541,3.550861 6.97894,5.326284 11.68059,5.326264 4.70158,0 8.61347,-1.795578 11.73569,-5.38679 3.12212,-3.591174 4.68321,-8.211305 4.68326,-13.860404 0,-5.649035 -1.54277,-10.228815 -4.62816,-13.739354 -3.04876,-3.550795 -6.96065,-5.326216 -11.73569,-5.326269"
       id="path2918-0" />
    <path
       d="m 649.04794,48.141009 12.89273,0 0,8.292033 c 1.39578,-3.268332 3.25071,-5.749887 5.56481,-7.444672 2.31405,-1.694655 4.84852,-2.542015 7.60341,-2.542082 1.94673,0 3.98532,0.564973 6.11577,1.694721 l -4.68325,14.22356 c -1.76314,-0.96836 -3.21403,-1.452567 -4.35267,-1.452619 -2.31411,0 -4.27924,1.573721 -5.89539,4.721011 -1.57948,3.147385 -2.36921,9.321009 -2.36919,18.52089 l 0.055,3.207866 0,26.631343 -14.93132,0 0,-65.852051"
       id="path2920-3" />
    <path
       d="m 687.39927,48.141009 14.98642,0 0,6.718362 c 3.41599,-3.147279 6.50143,-5.326204 9.25632,-6.536785 2.79155,-1.250798 5.63823,-1.876231 8.54005,-1.876298 5.95044,0 11.00102,2.279869 15.15172,6.839413 3.48942,3.873706 5.23417,9.603475 5.23422,17.189323 l 0,43.518036 -14.87622,0 0,-28.870797 c 0,-7.868315 -0.33063,-13.093703 -0.99175,-15.676178 -0.62448,-2.582386 -1.74479,-4.539385 -3.36093,-5.871001 -1.57948,-1.371866 -3.54462,-2.057824 -5.89539,-2.057876 -3.04874,0 -5.67504,1.129865 -7.87889,3.389443 -2.16718,2.219326 -3.67317,5.306138 -4.51797,9.260445 -0.44079,2.057915 -0.66118,6.516643 -0.66116,13.376198 l 0,26.449766 -14.98642,0 0,-65.852051"
       id="path2922-9" />
    <path
       d="m 364.53123,32.134836 0.90336,-12.702183 c -7.40748,0.793885 -10.84023,0.992358 -14.81498,0.992358 -1.44536,0 -3.61341,0 -6.50412,-0.198472 -7.40749,-5.954141 -15.89901,-8.534279 -27.46191,-8.534279 -23.12578,0 -39.20546,14.68692 -39.20546,35.526417 0,7.343441 2.34872,13.893016 6.6848,19.053272 3.43273,3.969429 6.1428,5.755679 12.46625,8.137336 l -12.8276,10.717466 c -1.80669,1.3893 -3.07139,5.557209 -3.07139,9.526636 0,7.144973 3.25207,10.717473 12.28559,13.297603 l -14.6343,9.52663 c -2.71006,1.78625 -4.69743,6.94651 -4.69743,12.30524 0,17.26701 15.17633,28.18296 39.0248,28.18296 31.61728,0 52.93641,-18.06094 52.93641,-44.45763 0,-16.671598 -8.49152,-24.610478 -26.73921,-24.610478 l -4.33609,0 c -17.88635,0.595414 -24.3905,0.793886 -26.37787,0.793886 -5.60078,0 -8.49151,-1.98472 -8.49151,-5.954148 0,-2.977071 1.62603,-5.358736 5.23944,-7.740392 3.25207,0.198471 5.05877,0.396943 7.22681,0.396943 12.46625,0 24.02918,-4.564855 31.43665,-12.702182 5.60078,-6.152613 7.9495,-13.099135 7.9495,-23.022705 0,-3.175543 -0.18067,-5.557208 -0.90336,-9.328165 l 13.91162,0.793887 M 314.48554,21.615841 c 9.57552,0 14.81497,8.534294 14.81497,24.213534 0,14.091469 -4.8781,21.434933 -14.45363,21.434933 -9.39485,0 -15.17631,-8.931237 -15.17631,-23.816592 0,-14.289941 5.05878,-21.831875 14.81497,-21.831875 m 3.61341,86.533619 c 22.04176,0 27.4619,3.17555 27.4619,15.87772 0,13.69453 -12.10494,24.01507 -28.18458,24.01507 -16.07965,0 -26.73921,-8.33582 -26.73921,-20.64105 0,-7.34344 3.79407,-14.09148 9.21418,-17.06856 2.89072,-1.3893 9.39487,-2.18318 18.24771,-2.18318"
       id="path2884-5"
       style="font-size:189.36192322px;font-family:Palatino" />
  </g>
  <path
     d="m 266.2323,152.32884 a 132.92415,9.3986779 0 0 1 -265.8482965,0 132.92415,9.3986775 0 1 1 265.8482965,0 z"
     id="path3423-1"
     style="opacity:0.26353838;fill:url(#linearGradient3003)" />
  <path
     d="m 115.3445,156.11344 c -2.57334,-0.81915 -2.58247,-1.18087 -0.21166,-8.37918 2.36763,-7.18862 1.28257,-13.86445 -3.10637,-19.11195 -5.96822,-7.13575 -8.84216,-13.22467 -9.75823,-20.67444 -0.78646,-6.3958 -1.03575,-6.90285 -3.639697,-7.40279 -1.74646,-0.33531 -4.15929,0.32877 -9.90965,2.72745 -8.36615,3.4898 -10.35876,5.02218 -12.33291,9.4843 -1.03707,2.34406 -1.16172,3.7482 -0.57348,6.45967 0.7183,3.31089 3.66212,8.64054 4.77653,8.64768 0.29081,0.002 1.89748,1.1023 3.57036,2.44541 2.77589,2.22869 2.96643,2.61592 2.18093,4.43265 -1.70673,3.94745 -5.76177,8.73342 -7.39962,8.73342 -0.91894,0 -4.67154,-2.62848 -8.80223,-6.16546 -8.11348,-6.94729 -8.45354,-7.64379 -9.29155,-19.03126 -0.99988,-13.58711 2.34128,-19.928173 17.22216,-32.685363 l 9.33328,-8.0013 0.5961,-4.8534 c 0.61452,-5.00328 -0.25183,-16.91684 -1.70841,-23.49298 -0.86051,-3.885 -3.7003,-7.58525 -6.39519,-8.33292 -2.93605,-0.8146 -4.65723,0.86613 -6.89082,6.72892 -2.40994,6.32567 -4.71315,8.53245 -8.90528,8.53245 -2.611079,0 -5.04774,-1.67029 -6.73027,-4.61349 -1.20562,-2.10894 -1.90545,-14.77861 -1.18473,-21.44783 0.34669,-3.20813 0.36656,-6.45629 0.0442,-7.21814 -0.52459,-1.23963 -5.04199,-3.92118 -15.69218,-9.31491 -1.93608,-0.98052 -4.19318,-2.30073 -5.01577,-2.93381 -0.82258,-0.63307 -2.95712,-1.7970198 -4.74342,-2.5865398 -4.0461,-1.78831 -14.59582,-7.95686 -13.60818,-7.95686 1.86847,0 9.78678,2.4371 14.00212,4.30958 2.57327,1.14308 5.0365,2.07831 5.47385,2.07831 0.43736,0 5.39838,1.59698 11.0245,3.5488498 5.62613,1.95185 10.76835,3.54883 11.42716,3.54883 1.56481,0 1.81019,-1.35379 1.30876,-7.2205198 -0.22777,-2.66503 -0.21772,-4.84552 0.0224,-4.84552 0.24005,0 1.27682,0.51453 2.3039,1.14339 3.13787,1.92125 9.88743,3.09794 17.82053,3.10678 7.58555,0.009 17.48687,1.51346 21.271117,3.23319 5.42864,2.4670198 11.72565,10.1723498 19.71366,24.1226098 5.55341,9.69849 11.5205,13.80519 20.07216,13.81419 3.45705,0.004 12.6805,-1.42134 25.17062,-3.88871 10.29868,-2.03446 23.89419,-2.49173 29.17145,-0.98115 6.43791,1.8428 14.95039,6.76935 21.98861,12.72577 6.58741,5.57491 7.60197,6.81262 11.64852,14.21045 4.82928,8.82878 10.15926,21.37645 14.899,35.074783 0.67537,1.95185 2.10182,5.23512 3.1699,7.29614 2.84984,5.49914 2.70779,5.83455 -2.47093,5.83455 -5.62088,0 -8.25697,-0.88636 -11.94164,-4.01528 -3.534,-3.00098 -4.45715,-4.83696 -9.98855,-19.865553 -2.83329,-7.6979 -5.59135,-12.31728 -7.35421,-12.31728 -1.20786,0 -3.65266,8.24914 -3.65266,12.32476 0,2.89469 1.814,6.805193 6.50386,14.020673 7.61871,11.72159 11.62643,28.29168 10.02221,41.4373 l -0.69293,5.67814 -5.07747,0.21136 c -7.99385,0.33278 -7.91382,0.44389 -7.91382,-10.98681 0,-12.16922 -0.82877,-14.80464 -6.19901,-19.71247 -2.2306,-2.03853 -7.23508,-7.83031 -11.12107,-12.87062 -3.88602,-5.04032 -7.60749,-9.16422 -8.26995,-9.16422 -1.52225,0 -2.28133,4.14488 -2.36225,12.8988 -0.0532,5.76495 -0.28025,6.74074 -1.98112,8.5172 -4.61104,4.81598 -7.84777,13.58519 -9.84317,26.668 -0.44167,2.89579 -0.82033,3.43751 -2.6974,3.85899 -2.76002,0.61973 -10.40844,0.72118 -11.06755,0.14681 -0.56842,-0.49534 0.42766,-8.35904 2.68721,-21.21493 0.85765,-4.87965 1.79377,-11.42725 2.08028,-14.55022 0.51005,-5.55953 -0.62987,-15.97557 -1.97899,-18.08289 -0.56095,-0.876193 -3.4173,-1.066053 -16.77722,-1.115113 -8.85564,-0.0325 -18.56749,-0.32384 -21.58186,-0.64737 l -5.48072,-0.58825 0,2.432133 c 0,2.60447 0.66758,4.90008 5.1317,17.6466 1.57224,4.48928 3.85053,11.33318 5.06287,15.20868 l 2.20425,7.04637 -1.86007,5.72944 c -1.02305,3.15119 -2.54137,6.92717 -3.37407,8.39107 -1.46872,2.58204 -1.64095,2.65994 -5.76025,2.60558 -2.33545,-0.0308 -5.28634,-0.38711 -6.55754,-0.79175 z"
     id="path3046-2-3-0"
     style="fill:#499848" />
</svg>
